<svg xmlns="http://www.w3.org/2000/svg" width="1250" height="34" viewBox="0 0 1250 34">
  <defs>
    <style>
      .a {
        fill: #fff;
      }
    </style>
  </defs>
  <title>zigzag-fill-desktop_2</title>
  <path class="a" d="M1218.75,0c-15.62,0-15.62,14-31.25,14s-15.62-14-31.24-14S1140.63,14,1125,14s-15.63-14-31.25-14-15.63,14-31.25,14-15.62-14-31.25-14S1015.64,14,1000,14,984.39,0,968.76,0s-15.62,14-31.25,14S921.89,0,906.26,0,890.64,14,875,14,859.4,0,843.77,0s-15.62,14-31.24,14S796.9,0,781.28,0,765.66,14,750,14,734.41,0,718.79,0s-15.62,14-31.25,14S671.92,0,656.29,0,640.67,14,625,14,609.42,0,593.8,0s-15.63,14-31.25,14S546.92,0,531.3,0s-15.63,14-31.25,14S484.42,0,468.8,0s-15.63,14-31.25,14S421.92,0,406.3,0s-15.63,14-31.25,14S359.42,0,343.79,0s-15.62,14-31.25,14S296.92,0,281.29,0,265.67,14,250,14,234.42,0,218.79,0s-15.62,14-31.25,14S171.91,0,156.29,0,140.66,14,125,14,109.4,0,93.78,0,78.15,14,62.52,14,46.89,0,31.26,0,15.63,14,0,14V34H1250V14C1234.38,14,1234.38,0,1218.75,0Z"/>
</svg>